<svg xmlns="http://www.w3.org/2000/svg" xmlns:xlink="http://www.w3.org/1999/xlink" width="80" height="109" viewBox="0 0 80 109">
  <defs>
    <clipPath id="clip-path">
      <rect id="Rectangle_6056" data-name="Rectangle 6056" width="80" height="109" transform="translate(273 1707)" fill="#fff"/>
    </clipPath>
    <clipPath id="clip-path-2">
      <rect id="Rectangle_389" data-name="Rectangle 389" width="71.118" height="77.723" fill="none"/>
    </clipPath>
  </defs>
  <g id="bandwidth_" data-name="bandwidth " transform="translate(-273 -1707)" clip-path="url(#clip-path)">
    <g id="Group_14294" data-name="Group 14294" transform="translate(277 1723)">
      <g id="Group_944" data-name="Group 944" clip-path="url(#clip-path-2)">
        <path id="Path_2336" data-name="Path 2336" d="M71.1,25.515c0,3.132-.036,6.265.019,9.4a2.5,2.5,0,0,1-1.381,2.47C64.275,40.6,58.86,43.893,53.393,47.1a2.06,2.06,0,0,1-1.744,0Q44.1,42.758,36.63,38.265a1.812,1.812,0,0,0-2.155.011c-4.426,2.668-8.889,5.276-13.306,7.958a1.835,1.835,0,0,0-.773,1.309c-.053,5.509-.025,11.018-.046,16.528a1.481,1.481,0,0,0,.838,1.439q6.753,4.033,13.464,8.137a1.536,1.536,0,0,0,1.846,0c3.256-1.979,6.528-3.933,9.836-5.822a1.931,1.931,0,0,0,1.121-1.95,5.034,5.034,0,0,1,4.633-4.978,5.121,5.121,0,0,1,5.464,4.224,5.022,5.022,0,0,1-3.717,5.8,4.811,4.811,0,0,1-3.825-.515,1.183,1.183,0,0,0-1.428.038c-3.98,2.386-7.959,4.773-11.991,7.07a2.3,2.3,0,0,1-1.94-.007c-5.47-3.2-10.878-6.507-16.341-9.719a2.424,2.424,0,0,1-1.351-2.363c.027-5.849-.009-11.7.034-17.547a1.877,1.877,0,0,0-1.078-1.865Q8.414,41.569.992,37a2.266,2.266,0,0,1-.943-1.613q-.1-9.961,0-19.923a2.291,2.291,0,0,1,.942-1.638C6.48,10.439,12.015,7.124,17.537,3.79a2.1,2.1,0,0,1,2.343.027q8.1,4.862,16.225,9.694a2.345,2.345,0,0,1,1.226,2.237c-.028,5.849.005,11.7-.033,17.546a1.908,1.908,0,0,0,1.053,1.9c4.475,2.659,8.923,5.364,13.368,8.074a1.286,1.286,0,0,0,1.543.043q6.755-4.138,13.554-8.2a1.649,1.649,0,0,0,.908-1.629q-.049-8.094,0-16.188a1.618,1.618,0,0,0-.932-1.611Q61.648,12.7,56.561,9.63a1.413,1.413,0,0,0-1.633-.038,5.042,5.042,0,0,1-6.13-.954,5.094,5.094,0,0,1-.623-6.178A4.991,4.991,0,0,1,53.835.192a4.9,4.9,0,0,1,3.733,5.026,1.576,1.576,0,0,0,.924,1.588c3.717,2.164,7.394,4.4,11.117,6.549a2.69,2.69,0,0,1,1.509,2.651c-.062,3.168-.02,6.339-.021,9.509M3.579,25.437c0,2.6.041,5.207-.022,7.808a1.956,1.956,0,0,0,1.083,1.99c4.449,2.627,8.867,5.307,13.279,8a1.36,1.36,0,0,0,1.637.028q6.71-4.1,13.468-8.12a1.735,1.735,0,0,0,.96-1.717q-.05-8.035,0-16.07A1.637,1.637,0,0,0,33.1,15.71c-4.559-2.662-9.087-5.378-13.655-8.026a1.655,1.655,0,0,0-1.4,0c-4.532,2.634-9.023,5.339-13.548,7.986a1.713,1.713,0,0,0-.93,1.734c.043,2.678.016,5.356.016,8.035m49,42.249a1.794,1.794,0,0,0,1.629-1.709,1.662,1.662,0,0,0-1.743-1.543,1.682,1.682,0,0,0-1.647,1.534,1.86,1.86,0,0,0,1.761,1.718M52.5,3.584a1.636,1.636,0,0,0-1.68,1.594A1.8,1.8,0,0,0,52.527,6.8a1.782,1.782,0,0,0,1.665-1.775,1.608,1.608,0,0,0-1.7-1.443" transform="translate(0 0)"/>
      </g>
    </g>
  </g>
</svg>
