<svg xmlns="http://www.w3.org/2000/svg" xmlns:xlink="http://www.w3.org/1999/xlink" width="80" height="109" viewBox="0 0 80 109">
  <defs>
    <clipPath id="clip-path">
      <rect id="Rectangle_6057" data-name="Rectangle 6057" width="80" height="109" transform="translate(485 1707)" fill="#fff"/>
    </clipPath>
    <clipPath id="clip-path-2">
      <rect id="Rectangle_6052" data-name="Rectangle 6052" width="54.137" height="81.604" fill="none"/>
    </clipPath>
  </defs>
  <g id="basic-features" transform="translate(-485 -1707)" clip-path="url(#clip-path)">
    <g id="Group_14298" data-name="Group 14298" transform="translate(498 1721)">
      <g id="Group_14297" data-name="Group 14297" clip-path="url(#clip-path-2)">
        <path id="Path_20486" data-name="Path 20486" d="M8.844,47.921c-1.939-.108-2.376-1.525-2.606-2.98a11.683,11.683,0,0,0-4.617-7.907A3.483,3.483,0,0,1,.385,32.449,13.517,13.517,0,0,0,.4,21.963a3.426,3.426,0,0,1,1.247-4.49A10.736,10.736,0,0,0,6.26,9.507,3.2,3.2,0,0,1,9.427,6.314,11.2,11.2,0,0,0,17.633,1.48,3.176,3.176,0,0,1,21.72.336,35.04,35.04,0,0,0,26.106,1.5a4.8,4.8,0,0,0,1.987-.021c1.734-.389,3.45-.864,5.162-1.344a2.29,2.29,0,0,1,2.574.68c.45.513,1.008.941,1.4,1.489,1.649,2.288,3.978,3.254,6.652,3.853,3.9.872,3.305.428,4.054,4.015a11.017,11.017,0,0,0,4.17,6.988c.362.271.657.63,1,.93a2.636,2.636,0,0,1,.843,2.874c-.452,1.722-.916,3.444-1.27,5.187A5.617,5.617,0,0,0,52.7,28.36c.374,1.778.847,3.536,1.32,5.291a2.283,2.283,0,0,1-.728,2.562c-.115.1-.2.233-.32.322a13.727,13.727,0,0,0-5.3,9.046c-.159.9-.4,1.78-1.46,2.137-.157.053-.242.655-.18.968Q48.39,60.679,50.806,72.66c.156.769.276,1.587-.464,1.907a3.05,3.05,0,0,1-2.211.092c-2.276-1.032-4.492-2.2-6.677-3.422a1.172,1.172,0,0,0-1.78.378c-1.524,1.888-3.067,3.766-4.7,5.556a2.785,2.785,0,0,1-1.884.895c-.892-.035-1.307-.831-1.484-1.753-1.333-6.959-2.7-13.91-4.268-20.921-.1.349-.237.692-.306,1.047-1.513,7.736-3,15.477-4.553,23.206a2.9,2.9,0,0,1-.979,1.689c-.773.547-1.576.206-2.187-.527-1.651-1.981-3.338-3.933-4.959-5.938-.494-.61-.862-.752-1.592-.333-2.137,1.225-4.3,2.417-6.515,3.485a2.989,2.989,0,0,1-2.212.119c-.878-.378-.757-1.368-.589-2.222Q6.057,62.585,8.66,49.252c.072-.371.1-.749.184-1.331m11.6,2.867c.357-.107.571-.183.791-.235,3.106-.731,6.182-1.973,9.417-.556a4.078,4.078,0,0,0,.652.2c2.651.663,2.732.73,4.5-1.357A8.68,8.68,0,0,1,41.363,45.5c.669-.093,1.309-.382,1.975-.521a1.671,1.671,0,0,0,1.4-1.4c1.362-5.031,1.369-5.041,5.037-8.7a1.832,1.832,0,0,0,.588-2.2,15.15,15.15,0,0,1-.118-11.058,1.629,1.629,0,0,0-.593-2.084,12.213,12.213,0,0,1-4.933-8.716,1.451,1.451,0,0,0-1.448-1.41,11.446,11.446,0,0,1-8.4-4.77c-.107-.153-.285-.257-.392-.41a1.309,1.309,0,0,0-1.766-.486,14.5,14.5,0,0,1-11.238.015,1.469,1.469,0,0,0-1.953.576A11.563,11.563,0,0,1,11.25,9.333c-.15.016-.3.066-.446.084a1.456,1.456,0,0,0-1.435,1.443A11.85,11.85,0,0,1,4.6,19.4a2.039,2.039,0,0,0-.667,2.485c.763,2.883,1.631,5.779.378,8.771-.289.691-.338,1.48-.592,2.19a1.531,1.531,0,0,0,.527,1.9,12.663,12.663,0,0,1,4.988,8.816c0,.037.027.072.03.109a1.231,1.231,0,0,0,1.145,1.2,13.1,13.1,0,0,1,9.218,5.336,2.857,2.857,0,0,0,.814.576M7.279,73.617c1.988-.992,3.64-1.82,5.3-2.64,1.951-.966,2.105-.924,3.525.753,1.135,1.342,2.285,2.672,3.649,4.264L24.194,53.37c-1.314.316-2.337.551-3.353.81a2.414,2.414,0,0,1-2.654-.719,43.32,43.32,0,0,0-3.773-3.621,12.553,12.553,0,0,0-2.327-1.23L7.279,73.617m39.562-3.357L42.7,48.66a5.35,5.35,0,0,0-3.878,1.821c-.886,1.033-1.972,1.9-2.858,2.928a2.5,2.5,0,0,1-2.761.753c-.821-.193-1.645-.373-2.65-.6L34.379,72.65c1.351-1.592,2.508-2.925,3.631-4.286,1.434-1.74,1.765-1.816,3.733-.773,1.6.846,3.2,1.676,5.1,2.669" transform="translate(0 0)"/>
        <path id="Path_20487" data-name="Path 20487" d="M61.1,78.754a16.926,16.926,0,1,1,.185-33.85,16.925,16.925,0,1,1-.185,33.85M74.653,61.9A13.559,13.559,0,1,0,61.082,75.51,13.73,13.73,0,0,0,74.653,61.9" transform="translate(-34.051 -34.686)"/>
      </g>
    </g>
  </g>
</svg>
