<svg xmlns="http://www.w3.org/2000/svg" xmlns:xlink="http://www.w3.org/1999/xlink" width="80" height="109" viewBox="0 0 80 109">
  <defs>
    <clipPath id="clip-path">
      <rect id="Rectangle_6060" data-name="Rectangle 6060" width="80" height="109" transform="translate(484 1887)" fill="#fff"/>
    </clipPath>
    <clipPath id="clip-path-2">
      <rect id="Rectangle_6051" data-name="Rectangle 6051" width="71.663" height="71.688" fill="none"/>
    </clipPath>
  </defs>
  <g id="support" transform="translate(-484 -1887)" clip-path="url(#clip-path)">
    <g id="Group_14296" data-name="Group 14296" transform="translate(489 1906)">
      <g id="Group_14295" data-name="Group 14295" clip-path="url(#clip-path-2)">
        <path id="Path_20483" data-name="Path 20483" d="M0,76.49A15.581,15.581,0,0,1,4.874,65.136c1.268-1.231,2.488-2.512,3.755-3.745a4.507,4.507,0,0,1,6.611-.009q4.021,3.9,7.987,7.86a4.519,4.519,0,0,1-.016,6.544c-1.614,1.641-3.258,3.251-4.878,4.886-.945.953-1,1.548-.232,2.631A73.679,73.679,0,0,0,36.42,101.439c1.077.741,1.606.707,2.544-.211,1.572-1.54,3.124-3.1,4.673-4.666a4.441,4.441,0,0,1,6.718-.072q3.861,3.851,7.71,7.714c2.3,2.32,2.273,4.671-.052,6.971-1.3,1.29-2.572,2.618-3.905,3.876a15.682,15.682,0,0,1-17.947,3,67.112,67.112,0,0,1-13.347-8.575A78.047,78.047,0,0,1,1.894,84.386,16.952,16.952,0,0,1,0,76.49m2.915.795a13.051,13.051,0,0,0,1.431,5.333,75.978,75.978,0,0,0,19.226,23.673,78.056,78.056,0,0,0,13.1,8.788,12.532,12.532,0,0,0,6.912,1.622,13.892,13.892,0,0,0,9.071-4.357c1.1-1.117,2.173-2.259,3.262-3.385s1.089-1.637-.027-2.756q-3.745-3.753-7.5-7.5c-1.093-1.092-1.623-1.083-2.751.044-1.486,1.485-2.966,2.976-4.457,4.456-2.174,2.158-4.178,2.338-6.673.578A77.581,77.581,0,0,1,15.563,84.73a4.359,4.359,0,0,1,.571-6.048c1.63-1.624,3.268-3.241,4.877-4.885.924-.944.914-1.545-.01-2.476q-3.877-3.9-7.78-7.783a1.567,1.567,0,0,0-2.59.023q-1.713,1.682-3.4,3.391A13.893,13.893,0,0,0,2.915,77.285" transform="translate(0 -47.946)"/>
        <path id="Path_20484" data-name="Path 20484" d="M155.186,26.975h1.086q5.952,0,11.9,0c1.165,0,1.872.55,1.9,1.456.025.872-.622,1.374-1.813,1.375-5.769,0-11.538,0-17.307.008-.8,0-1.484-.148-1.737-1.008a1.673,1.673,0,0,1,.791-1.88c4.454-3.558,8.907-7.116,13.324-10.719a14.507,14.507,0,0,0,2.268-2.381,6.13,6.13,0,0,0,.75-6.77,6.769,6.769,0,0,0-5.769-3.9,7.792,7.792,0,0,0-5.608,1.323,6.577,6.577,0,0,0-2.832,5.159c-.066,1.113-.706,1.783-1.638,1.714a1.524,1.524,0,0,1-1.386-1.838A9.351,9.351,0,0,1,154.3,1.394a11.391,11.391,0,0,1,10.406-.1c4.562,2.1,8.057,9.338,2.694,15.024a84.085,84.085,0,0,1-7.424,6.366c-1.328,1.114-2.694,2.182-4.037,3.279-.3.245-.576.519-.863.78l.112.236" transform="translate(-119.265 -0.068)"/>
        <path id="Path_20485" data-name="Path 20485" d="M257.759,20.8h8.1c0-1.441.013-2.828-.005-4.214a1.417,1.417,0,0,1,1.032-1.526,1.35,1.35,0,0,1,1.868,1.309c.035,1.133.069,2.272-.008,3.4-.062.916.29,1.158,1.145,1.1,1.03-.065,2.067-.026,3.1-.011,1.147.016,1.819.609,1.8,1.553-.023.907-.679,1.473-1.764,1.484-1.361.013-2.722,0-4.26,0,0,1.511.015,2.93,0,4.348a1.337,1.337,0,0,1-1.744,1.463,1.36,1.36,0,0,1-1.157-1.513c.01-1.391,0-2.782,0-4.3h-2.7c-2.468,0-4.937.007-7.405,0-1.616-.007-2.18-.847-1.549-2.33q4.307-10.12,8.633-20.232c.5-1.166,1.23-1.578,2.129-1.208.86.354,1.062,1.188.544,2.4q-3.293,7.727-6.6,15.449c-.376.882-.728,1.774-1.155,2.819" transform="translate(-203.124 0)"/>
      </g>
    </g>
  </g>
</svg>
