<svg xmlns="http://www.w3.org/2000/svg" xmlns:xlink="http://www.w3.org/1999/xlink" width="80" height="109" viewBox="0 0 80 109">
  <defs>
    <clipPath id="clip-path">
      <rect id="Rectangle_6059" data-name="Rectangle 6059" width="80" height="109" transform="translate(272 1887)" fill="#fff"/>
    </clipPath>
    <clipPath id="clip-path-2">
      <rect id="Rectangle_6054" data-name="Rectangle 6054" width="73.3" height="73.33" fill="none"/>
    </clipPath>
  </defs>
  <g id="ads-free" transform="translate(-272 -1887)" clip-path="url(#clip-path)">
    <g id="Group_14303" data-name="Group 14303" transform="translate(275 1905)">
      <g id="Group_14302" data-name="Group 14302" transform="translate(0)" clip-path="url(#clip-path-2)">
        <path id="Path_20494" data-name="Path 20494" d="M0,36.691A36.65,36.65,0,1,1,35.69,73.319,36.741,36.741,0,0,1,0,36.691M12.039,14.227c-6.958,6.908-11,18.875-7.924,30.681A33.478,33.478,0,0,0,32.5,69.942c10.093,1.321,18.941-1.753,26.624-8.523-.371-.393-.605-.657-.856-.9-3.995-3.95-8.006-7.883-11.974-11.86a2.742,2.742,0,0,0-2.333-.924c-1.309.095-2.63.034-3.945.022-1.242-.011-1.741-.487-1.765-1.741-.029-1.528.046-3.061-.04-4.585a2.666,2.666,0,0,0-.645-1.564c-1.709-1.809-3.491-3.547-5.251-5.307-.367-.367-.747-.72-1.121-1.08a1.354,1.354,0,0,0,.012.9q1.773,5.419,3.554,10.836c.411,1.257.156,2.166-.675,2.479-1,.378-1.845-.142-2.3-1.442-.434-1.24-.888-2.476-1.255-3.736a1.156,1.156,0,0,0-1.35-1,38.124,38.124,0,0,1-4.052,0,1.274,1.274,0,0,0-1.515,1.079c-.422,1.429-.919,2.839-1.454,4.23a1.43,1.43,0,0,1-1.869.976,1.508,1.508,0,0,1-1.1-1.82,5.482,5.482,0,0,1,.314-1.015c1.776-5.363,3.536-10.731,5.348-16.082a1.8,1.8,0,0,0-.48-2.155c-3.337-3.3-6.617-6.658-9.912-10-.815-.827-1.614-1.669-2.417-2.5m26.134,21.4c.023-.243.061-.449.061-.656.006-2.489-.013-4.978.015-7.467.015-1.359.567-1.894,1.861-1.908.96-.01,1.92,0,2.88,0a11.056,11.056,0,0,1,10.5,7.293,10.913,10.913,0,0,1-3.51,12.381c-.431.35-.869.69-1.458,1.156L61.175,59.181c6.468-6.321,11.276-18.587,7.62-31.615A33,33,0,0,0,39.541,3.421a32.263,32.263,0,0,0-25.207,8.355L38.173,35.624m12.74,1.9c0-5.574-4.124-9.323-8.889-8.927-.766.064-.72.5-.72,1.007,0,2.949-.02,5.9.024,8.847a2.122,2.122,0,0,0,.51,1.3c1.184,1.274,2.466,2.458,3.661,3.723a.981.981,0,0,0,1.47.146c2.517-1.617,3.887-3.873,3.943-6.1m-21.827.656-1.93-5.655-.268-.027-1.818,5.682Z" transform="translate(0)"/>
      </g>
    </g>
  </g>
</svg>
