<svg xmlns="http://www.w3.org/2000/svg" xmlns:xlink="http://www.w3.org/1999/xlink" width="80" height="109" viewBox="0 0 80 109">
  <defs>
    <clipPath id="clip-path">
      <rect id="Rectangle_6058" data-name="Rectangle 6058" width="80" height="109" transform="translate(701 1707)" fill="#fff"/>
    </clipPath>
    <clipPath id="clip-path-2">
      <rect id="Rectangle_6055" data-name="Rectangle 6055" width="68.346" height="82.23" fill="none"/>
    </clipPath>
  </defs>
  <g id="push-notifications" transform="translate(-701 -1707)" clip-path="url(#clip-path)">
    <g id="Group_14305" data-name="Group 14305" transform="translate(706 1720)">
      <g id="Group_14304" data-name="Group 14304" clip-path="url(#clip-path-2)">
        <path id="Path_20495" data-name="Path 20495" d="M23.91,71.953H22.492c-6.731,0-13.462-.01-20.192.011-.943,0-1.8-.1-2.183-1.076-.356-.92.155-1.567.816-2.191,3.171-2.99,5.961-6.259,7.389-10.482A43.674,43.674,0,0,0,10.195,45.1c.083-3.516.153-7.033.16-10.55.02-11.512,6.536-20.2,17.6-23.408.178-.052.354-.11.67-.209C26.495,6.922,26.89,3.411,30.882.92a6.833,6.833,0,0,1,7.924.787c2.529,2.273,2.852,4.836,1.1,9.185.378.135.747.291,1.129.4A23.33,23.33,0,0,1,58.15,33.917c.047,5.312.2,10.625.424,15.932a25.281,25.281,0,0,0,8.691,18.579c.2.178.481.336.562.562.228.636.673,1.431.464,1.922a2.409,2.409,0,0,1-1.7,1,23.1,23.1,0,0,1-3.321.045H44.614c-.939,6.642-4.917,10.414-10.853,10.273-4.266-.1-9.371-3.412-9.851-10.273m38.622-3.366c-.292-.4-.465-.691-.684-.937a25.969,25.969,0,0,1-6.464-16.316c-.327-5.721-.462-11.458-.524-17.189A20.475,20.475,0,0,0,30.936,13.916a20.27,20.27,0,0,0-17.291,20c-.133,5.884-.2,11.775-.556,17.647a25.57,25.57,0,0,1-6.23,15.818c-.293.332-.547.7-.937,1.2ZM27.344,72.019a6.9,6.9,0,0,0,10.744,5.711,6.54,6.54,0,0,0,3.049-5.711ZM37.646,6.9A3.589,3.589,0,0,0,34.3,3.337,3.563,3.563,0,0,0,30.85,6.9a3.4,3.4,0,1,0,6.8,0" transform="translate(0 0.001)"/>
        <path id="Path_20496" data-name="Path 20496" d="M90.752,75.207c.267,0,.535-.011.8,0,1.085.051,1.78.658,1.777,1.543A1.8,1.8,0,0,1,91.55,78.48a14.655,14.655,0,0,0-6.5,1.563A12.693,12.693,0,0,0,77.923,91.5c-.078,1.808-.683,2.655-1.867,2.579-1.216-.078-1.733-.939-1.65-2.748A16.677,16.677,0,0,1,90.752,75.207" transform="translate(-57.322 -57.942)"/>
      </g>
    </g>
  </g>
</svg>
